<?xml version="1.0" encoding="utf-8"?><!-- Uploaded to: SVG Repo, www.svgrepo.com, Generator: SVG Repo Mixer Tools -->
<svg version="1.1" id="Uploaded to svgrepo.com" xmlns="http://www.w3.org/2000/svg" xmlns:xlink="http://www.w3.org/1999/xlink" 
	 width="800px" height="800px" viewBox="0 0 32 32" xml:space="preserve">
<style type="text/css">
	.stone_een{fill:#0B1719;}
</style>
<path class="stone_een" d="M28.382,22H3.281c-0.651,0-1.128,0.611-0.97,1.243l1.121,4.485C3.766,29.063,4.966,30,6.342,30h17.804
	c1.136,0,2.175-0.642,2.683-1.658l2.447-4.894C29.609,22.782,29.125,22,28.382,22z M7,27c-0.552,0-1-0.448-1-1c0-0.552,0.448-1,1-1
	s1,0.448,1,1C8,26.552,7.552,27,7,27z M10,27c-0.552,0-1-0.448-1-1c0-0.552,0.448-1,1-1s1,0.448,1,1C11,26.552,10.552,27,10,27z
	 M13,27c-0.552,0-1-0.448-1-1c0-0.552,0.448-1,1-1s1,0.448,1,1C14,26.552,13.552,27,13,27z M10,5c0-0.552,0.448-1,1-1h4V3
	c0-0.552,0.448-1,1-1c0.552,0,1,0.448,1,1v1h4c0.552,0,1,0.448,1,1v2c-1.103,0-2,0.897-2,2v9h-3v3h-2v-3h-4c-0.551,0-1-0.449-1-1V5z
	 M23.5,8H24V7c0-0.552,0.448-1,1-1c0.552,0,1,0.448,1,1v1h2c0.552,0,1,0.448,1,1v8c0,0.552-0.448,1-1,1h-2v3h-2v-3h-2
	c-0.551,0-1-0.449-1-1V9c0-0.551,0.449-1,1-1H23.5z M2,17V9c0-0.552,0.448-1,1-1h3V7c0-0.552,0.448-1,1-1c0.552,0,1,0.448,1,1v1h1
	v10H8v3H6v-3H3C2.448,18,2,17.552,2,17z"/>
</svg>